<mxfile host="app.diagrams.net" modified="2020-11-17T14:08:41.025Z" agent="5.0 (Windows NT 10.0; Win64; x64) AppleWebKit/537.36 (KHTML, like Gecko) Chrome/86.0.4240.198 Safari/537.36" etag="6qMAXyFkcan0IDL7kw9Z" version="13.9.9" type="github">
  <diagram id="C5RBs43oDa-KdzZeNtuy" name="Page-1">
    <mxGraphModel dx="1185" dy="693" grid="1" gridSize="10" guides="1" tooltips="1" connect="1" arrows="1" fold="1" page="1" pageScale="1" pageWidth="827" pageHeight="1169" math="0" shadow="0">
      <root>
        <mxCell id="WIyWlLk6GJQsqaUBKTNV-0" />
        <mxCell id="WIyWlLk6GJQsqaUBKTNV-1" parent="WIyWlLk6GJQsqaUBKTNV-0" />
        <mxCell id="Ad6dhpt2poR4CwECdqLM-6" style="edgeStyle=orthogonalEdgeStyle;rounded=0;orthogonalLoop=1;jettySize=auto;html=1;" edge="1" parent="WIyWlLk6GJQsqaUBKTNV-1" source="Ad6dhpt2poR4CwECdqLM-5">
          <mxGeometry relative="1" as="geometry">
            <mxPoint x="497" y="100" as="targetPoint" />
          </mxGeometry>
        </mxCell>
        <mxCell id="Ad6dhpt2poR4CwECdqLM-42" style="edgeStyle=orthogonalEdgeStyle;rounded=0;orthogonalLoop=1;jettySize=auto;html=1;entryX=0.5;entryY=0;entryDx=0;entryDy=0;" edge="1" parent="WIyWlLk6GJQsqaUBKTNV-1" source="Ad6dhpt2poR4CwECdqLM-5" target="Ad6dhpt2poR4CwECdqLM-41">
          <mxGeometry relative="1" as="geometry" />
        </mxCell>
        <mxCell id="Ad6dhpt2poR4CwECdqLM-5" value="Webkids" style="rounded=1;whiteSpace=wrap;html=1;" vertex="1" parent="WIyWlLk6GJQsqaUBKTNV-1">
          <mxGeometry x="280" y="20" width="120" height="60" as="geometry" />
        </mxCell>
        <mxCell id="Ad6dhpt2poR4CwECdqLM-55" style="edgeStyle=orthogonalEdgeStyle;rounded=0;orthogonalLoop=1;jettySize=auto;html=1;" edge="1" parent="WIyWlLk6GJQsqaUBKTNV-1" source="Ad6dhpt2poR4CwECdqLM-9" target="Ad6dhpt2poR4CwECdqLM-17">
          <mxGeometry relative="1" as="geometry" />
        </mxCell>
        <mxCell id="Ad6dhpt2poR4CwECdqLM-9" value="Designer + Developer&amp;nbsp;" style="rounded=1;whiteSpace=wrap;html=1;" vertex="1" parent="WIyWlLk6GJQsqaUBKTNV-1">
          <mxGeometry x="437" y="410" width="120" height="60" as="geometry" />
        </mxCell>
        <mxCell id="Ad6dhpt2poR4CwECdqLM-52" style="edgeStyle=orthogonalEdgeStyle;rounded=0;orthogonalLoop=1;jettySize=auto;html=1;entryX=0.5;entryY=0;entryDx=0;entryDy=0;" edge="1" parent="WIyWlLk6GJQsqaUBKTNV-1" source="Ad6dhpt2poR4CwECdqLM-12" target="Ad6dhpt2poR4CwECdqLM-26">
          <mxGeometry relative="1" as="geometry" />
        </mxCell>
        <mxCell id="Ad6dhpt2poR4CwECdqLM-12" value="Create Project" style="rounded=1;whiteSpace=wrap;html=1;" vertex="1" parent="WIyWlLk6GJQsqaUBKTNV-1">
          <mxGeometry x="437" y="210" width="120" height="60" as="geometry" />
        </mxCell>
        <mxCell id="Ad6dhpt2poR4CwECdqLM-23" style="edgeStyle=orthogonalEdgeStyle;rounded=0;orthogonalLoop=1;jettySize=auto;html=1;" edge="1" parent="WIyWlLk6GJQsqaUBKTNV-1" source="Ad6dhpt2poR4CwECdqLM-15" target="Ad6dhpt2poR4CwECdqLM-12">
          <mxGeometry relative="1" as="geometry" />
        </mxCell>
        <mxCell id="Ad6dhpt2poR4CwECdqLM-15" value="Customer Contacts" style="rounded=1;whiteSpace=wrap;html=1;" vertex="1" parent="WIyWlLk6GJQsqaUBKTNV-1">
          <mxGeometry x="437" y="100" width="120" height="60" as="geometry" />
        </mxCell>
        <mxCell id="Ad6dhpt2poR4CwECdqLM-17" value="Administration Report" style="rounded=1;whiteSpace=wrap;html=1;" vertex="1" parent="WIyWlLk6GJQsqaUBKTNV-1">
          <mxGeometry x="300" y="520" width="120" height="60" as="geometry" />
        </mxCell>
        <mxCell id="Ad6dhpt2poR4CwECdqLM-53" style="edgeStyle=orthogonalEdgeStyle;rounded=0;orthogonalLoop=1;jettySize=auto;html=1;entryX=0.5;entryY=0;entryDx=0;entryDy=0;" edge="1" parent="WIyWlLk6GJQsqaUBKTNV-1" source="Ad6dhpt2poR4CwECdqLM-26" target="Ad6dhpt2poR4CwECdqLM-9">
          <mxGeometry relative="1" as="geometry" />
        </mxCell>
        <mxCell id="Ad6dhpt2poR4CwECdqLM-26" value="Customer" style="rounded=1;whiteSpace=wrap;html=1;" vertex="1" parent="WIyWlLk6GJQsqaUBKTNV-1">
          <mxGeometry x="437" y="310" width="120" height="60" as="geometry" />
        </mxCell>
        <mxCell id="Ad6dhpt2poR4CwECdqLM-41" value="Company Administration" style="rounded=1;whiteSpace=wrap;html=1;" vertex="1" parent="WIyWlLk6GJQsqaUBKTNV-1">
          <mxGeometry x="120" y="100" width="120" height="60" as="geometry" />
        </mxCell>
      </root>
    </mxGraphModel>
  </diagram>
</mxfile>
